<svg viewBox="0 0 307 50" version="1.1" xmlns="http://www.w3.org/2000/svg" xmlns:xlink="http://www.w3.org/1999/xlink">
  <defs>
    <polygon id="path-1" points="0.206385043 0.101385135 23.9178176 0.101385135 23.9178176 32.0945946 0.206385043 32.0945946"></polygon>
    <polygon id="path-3" points="0.246747033 0.330162207 13.7751912 0.330162207 13.7751912 22.8378716 0.246747033 22.8378716"></polygon>
  </defs>
  <g id="Page-1" stroke="none" stroke-width="1" fill="none" fill-rule="evenodd">
    <g id="logo_suite_horizontal_logo">
      <path d="M33.7470931,42.6352027 C34.4555546,42.6352027 35.1302799,42.4662838 35.7712689,42.0943243 L43.1595107,37.8379054 C44.6439063,36.9933108 46.3644557,36.6216892 48.0850052,36.8243919 C57.0588513,37.8713514 63.3337964,39.5605405 65.1892909,40.1014189 C65.5603898,40.2027703 65.9989612,40.0672973 66.2351151,39.7635811 C66.5387414,39.3916216 66.9098403,38.7838514 67.2134667,37.905473 C67.4833568,37.0608784 67.5170931,36.3510811 67.4833568,35.8443243 C67.4496205,35.4392568 67.1797304,35.0676351 66.7748953,34.9662838 C63.8735766,34.1216892 51.0200601,30.6419595 33.7470931,30.6419595 C16.474126,30.6419595 3.62060956,34.1216892 0.719290879,34.9662838 C0.314455714,35.0676351 0.0445656044,35.4392568 0.0108293407,35.8443243 C-0.0229069231,36.3176351 0.0108293407,37.0267568 0.280719451,37.905473 C0.55060956,38.7838514 0.955444725,39.3916216 1.2590711,39.7635811 C1.49522495,40.0672973 1.93379637,40.2027703 2.30489527,40.1014189 C4.16038978,39.5605405 10.4690711,37.8713514 19.409181,36.8243919 C21.1297304,36.6216892 22.8502799,36.9933108 24.3346755,37.8379054 L31.7229173,42.0943243 C32.3639063,42.4662838 33.0723678,42.6352027 33.7470931,42.6352027" id="Fill-1" fill="#0870E3" fill-rule="nonzero"></path>
      <path d="M21.4333568,18.6823649 C21.838192,19.3918243 22.479181,19.8647973 23.2213788,20.0675 C23.9635766,20.2702027 24.7395107,20.1688514 25.4479722,19.7634459 C26.1564337,19.3580405 26.6287414,18.7161486 26.831159,17.9729054 C27.0335766,17.2296622 26.9323678,16.4526351 26.5275326,15.7431757 L19.8814887,4.22290541 C19.6790711,3.85128378 19.2404997,3.71614865 18.8356645,3.74993243 C18.2958843,3.78371622 17.5536865,4.05398649 16.6765436,4.56074324 C15.7994008,5.0675 15.192148,5.57425676 14.8885216,6.01344595 C14.6523678,6.35128378 14.5848953,6.79047297 14.7873129,7.16209459 L21.4333568,18.6823649 Z" id="Fill-3" fill="#0870E3" fill-rule="nonzero"></path>
      <path d="M15.3608293,26.9257432 C16.0692909,27.3311486 16.8789612,27.3983784 17.5874227,27.2294595 C18.3296205,27.0270946 18.9706096,26.5537838 19.3754447,25.8446622 C19.7802799,25.1352027 19.8477524,24.3243919 19.6790711,23.6149324 C19.5103898,22.905473 19.0043458,22.2297973 18.2958843,21.8243919 L6.79181835,15.1689865 C6.42071945,14.9662838 5.98214802,15.0338514 5.64478538,15.2703378 C5.20621396,15.5743919 4.70017,16.1825 4.19412604,17.0608784 C3.68808209,17.9392568 3.41819198,18.6825 3.38445571,19.2230405 C3.35071945,19.6622297 3.51940077,20.0676351 3.85676341,20.2703378 L15.3608293,26.9257432 Z" id="Fill-5" fill="#0870E3" fill-rule="nonzero"></path>
      <path d="M36.6820468,14.5946622 C36.6820468,15.405473 36.3446842,16.1487162 35.8386402,16.6892568 C35.29886,17.2297973 34.5903985,17.5338514 33.7469919,17.5338514 C32.9373215,17.5338514 32.1951237,17.1960135 31.6553435,16.6892568 C31.1155633,16.1487162 30.8119369,15.4392568 30.8119369,14.5946622 L30.8119369,1.31763514 C30.8119369,0.878445946 31.081827,0.540608108 31.4866622,0.371689189 C31.9589699,0.135202703 32.734904,6.75675676e-05 33.7469919,6.75675676e-05 C34.7590798,6.75675676e-05 35.5350138,0.135202703 36.0073215,0.371689189 C36.3784204,0.574391892 36.6820468,0.878445946 36.6820468,1.31763514 L36.6820468,14.5946622 Z" id="Fill-7" fill="#0870E3" fill-rule="nonzero"></path>
      <path d="M46.0608293,18.6823649 C45.6559942,19.3918243 45.0150052,19.8647973 44.2728074,20.0675 C43.5306096,20.2702027 42.7546755,20.1688514 42.046214,19.7634459 C41.3377524,19.3580405 40.8654447,18.7161486 40.6630271,17.9729054 C40.4606096,17.2296622 40.5618184,16.4526351 40.9666535,15.7431757 L47.6126975,4.22290541 C47.8151151,3.85128378 48.2536865,3.71614865 48.6585216,3.74993243 C49.1983019,3.78371622 49.9404997,4.05398649 50.8176425,4.56074324 C51.6947854,5.0675 52.3020381,5.57425676 52.6056645,6.01344595 C52.8418184,6.35128378 52.9092909,6.79047297 52.7068733,7.16209459 L46.0608293,18.6823649 Z" id="Fill-9" fill="#0870E3" fill-rule="nonzero"></path>
      <path d="M52.1333568,26.9257432 C51.4248953,27.3311486 50.6152249,27.3983784 49.9067634,27.2294595 C49.1645656,27.0270946 48.5235766,26.5537838 48.1187414,25.8446622 C47.7139063,25.1352027 47.6464337,24.3243919 47.8151151,23.6149324 C48.0175326,22.8716892 48.4898403,22.2297973 49.1983019,21.8243919 L60.7023678,15.1689865 C61.0734667,14.9662838 61.5120381,15.0338514 61.8494008,15.2703378 C62.2879722,15.5743919 62.7940162,16.1825 63.3000601,17.0608784 C63.8061041,17.9392568 64.0759942,18.6825 64.1097304,19.2230405 C64.1434667,19.6622297 63.9747854,20.0676351 63.6374227,20.2703378 L52.1333568,26.9257432 Z" id="Fill-11" fill="#0870E3" fill-rule="nonzero"></path>
      <g id="Group-15" transform="translate(124.824176, 17.668919)">
        <g id="Fill-13-Clipped">
          <mask id="mask-2" fill="white">
            <use xlink:href="#path-1"></use>
          </mask>
          <g id="path-1"></g>
          <path d="M0.685554615,0.101385135 L6.21830187,0.101385135 C6.42071945,0.101385135 6.58940077,0.23652027 6.69060956,0.405439189 L12.1896205,14.5270608 L17.5199502,0.405439189 C17.5874227,0.202736486 17.7898403,0.101385135 17.9922579,0.101385135 L23.4237964,0.101385135 C23.7948953,0.101385135 24.0310491,0.473006757 23.8623678,0.777060811 L10.3678623,31.7905743 C10.3003898,31.9594932 10.0979722,32.0946284 9.92929088,32.0946284 L5.13874143,32.0946284 C4.80137879,32.0946284 4.53148868,31.7230068 4.70017,31.4189527 L9.32203813,20.5743581 L0.280719451,0.777060811 C0.0783018681,0.473006757 0.314455714,0.101385135 0.685554615,0.101385135" id="Fill-13" fill="#0870E3" fill-rule="nonzero" mask="url(#mask-2)"></path>
        </g>
      </g>
      <path d="M195.141345,28.7498649 C195.141345,32.5336486 197.469147,35.4393919 201.213873,35.4393919 C204.958598,35.4393919 207.353873,32.9056081 207.353873,29.020473 C207.353873,25.1353378 205.02607,22.162027 201.045191,22.162027 C197.300466,22.162027 195.141345,25.0677703 195.141345,28.7498649 M207.185191,20.912027 L207.185191,18.2768919 C207.185191,18.0066216 207.421345,17.7701351 207.691235,17.7701351 L212.582993,17.7701351 C212.852884,17.7701351 213.089037,18.0066216 213.089037,18.2768919 L213.089037,39.324527 C213.089037,39.5947973 212.852884,39.8312838 212.582993,39.8312838 L207.691235,39.8312838 C207.421345,39.8312838 207.185191,39.5947973 207.185191,39.324527 L207.185191,36.5542568 C206.139367,38.1755405 203.845301,40.3039189 200.100576,40.3039189 C192.948488,40.3039189 189.237499,34.8309459 189.237499,28.7160811 C189.237499,20.7431081 194.770246,17.3309459 199.931895,17.3309459 C203.339257,17.2975 205.700796,18.9187838 207.185191,20.912027" id="Fill-16" fill="#0870E3" fill-rule="nonzero"></path>
      <path d="M217.50842,39.3244595 L217.50842,18.2771622 C217.50842,18.0065541 217.744574,17.7704054 218.014464,17.7704054 L222.906223,17.7704054 C223.176113,17.7704054 223.412267,18.0065541 223.412267,18.2771622 L223.412267,21.1487838 C224.5593,19.1555405 226.71842,17.3308784 230.395673,17.3308784 C234.174135,17.3308784 238.391168,19.1889865 238.391168,27.7362838 L238.391168,39.3244595 C238.391168,39.5947297 238.155014,39.8312162 237.885124,39.8312162 L232.993365,39.8312162 C232.723813,39.8312162 232.487322,39.5947297 232.487322,39.3244595 L232.487322,27.837973 C232.487322,25.7768243 231.981278,22.229527 228.338098,22.229527 C224.694245,22.229527 223.412267,25.4389865 223.412267,28.4119595 L223.412267,39.3244595 C223.412267,39.5947297 223.176113,39.8312162 222.906223,39.8312162 L218.014464,39.8312162 C217.711175,39.7970946 217.50842,39.5947297 217.50842,39.3244595" id="Fill-18" fill="#0870E3" fill-rule="nonzero"></path>
      <path d="M242.574397,39.3244595 L242.574397,18.2771622 C242.574397,18.0065541 242.810551,17.7704054 243.080441,17.7704054 L247.972199,17.7704054 C248.242427,17.7704054 248.478243,18.0065541 248.478243,18.2771622 L248.478243,21.1487838 C249.625276,19.1555405 251.784734,17.3308784 255.46165,17.3308784 C259.240111,17.3308784 263.457144,19.1889865 263.457144,27.7362838 L263.457144,39.3244595 C263.457144,39.5947297 263.22099,39.8312162 262.9511,39.8312162 L258.059342,39.8312162 C257.789789,39.8312162 257.553298,39.5947297 257.553298,39.3244595 L257.553298,27.837973 C257.553298,25.7768243 257.047254,22.229527 253.404075,22.229527 C249.760558,22.229527 248.478243,25.4389865 248.478243,28.4119595 L248.478243,39.3244595 C248.478243,39.5947297 248.242427,39.8312162 247.972199,39.8312162 L243.080441,39.8312162 C242.810551,39.7970946 242.574397,39.5947297 242.574397,39.3244595" id="Fill-20" fill="#0870E3" fill-rule="nonzero"></path>
      <g id="Group-24" transform="translate(293.168132, 16.993243)">
        <g id="Fill-22-Clipped">
          <mask id="mask-4" fill="white">
            <use xlink:href="#path-3"></use>
          </mask>
          <g id="path-3"></g>
          <path d="M0.786864615,0.777060811 L5.5436778,0.777060811 C5.81323055,0.777060811 6.04972176,1.0135473 6.04972176,1.28381757 L6.04972176,5.64192568 C6.99399978,1.31760135 10.7049888,-0.168885135 13.4038899,0.473006757 C13.6403811,0.506790541 13.7753262,0.709493243 13.7753262,0.94597973 L13.7753262,5.74327703 C13.7753262,6.04733108 13.5050987,6.28381757 13.167736,6.21625 C8.17476901,5.23652027 6.15059319,7.93922297 6.15059319,11.7230068 L6.15059319,22.3311149 C6.15059319,22.6013851 5.91443934,22.8378716 5.64454923,22.8378716 L0.752790989,22.8378716 C0.483238242,22.8378716 0.246747033,22.6013851 0.246747033,22.3311149 L0.246747033,1.28381757 C0.280820659,1.0135473 0.516637143,0.777060811 0.786864615,0.777060811" id="Fill-22" fill="#0870E3" fill-rule="nonzero" mask="url(#mask-4)"></path>
        </g>
      </g>
      <path d="M93.0891473,22.5675 C91.5710154,22.0607432 90.7613451,21.7566892 89.5468396,21.3512838 C88.2985978,20.9120946 86.1732132,19.6958784 86.1732132,17.7364189 C86.1732132,15.7769595 87.5226637,14.5269595 90.2553011,14.5269595 C92.7517846,14.5269595 94.1349714,15.7431757 95.0458505,17.7026351 C95.1807956,17.9729054 95.484422,18.0742568 95.7543121,17.9391216 L99.7689275,15.6080405 C99.9713451,15.4729054 100.072554,15.2026351 99.9713451,14.9661486 C98.7568396,12.2972297 95.9229934,9.08777027 90.3227736,9.08777027 C84.0815648,9.08777027 80.1681582,12.8039865 80.1681582,17.7026351 C80.1681582,22.5675 83.3731033,25.1012838 87.7250813,26.5877703 C89.3106857,27.1283108 89.9516747,27.3647973 91.3011253,27.8039865 C93.8650813,28.6827027 95.0458505,29.8310135 95.0458505,31.4188514 C95.0458505,33.0066892 94.0337626,34.8985811 90.0528835,34.8985811 C86.409367,34.8985811 85.127389,32.9729054 84.3851912,31.1485811 C84.2839824,30.8786486 83.9466198,30.7431757 83.6767297,30.9120946 L79.4596967,33.344527 C79.2572791,33.4796622 79.1560703,33.7161486 79.2572791,33.9526351 C80.8766198,37.9391216 85.2960703,40.3039865 90.2553011,40.3039865 C96.0916747,40.3039865 101.017169,37.3310135 101.017169,31.3175 C101.017169,25.3043243 94.6072791,23.0742568 93.0891473,22.5675" id="Fill-25" fill="#0870E3" fill-rule="nonzero"></path>
      <path d="M125.307279,34.0539865 C125.172334,33.8175 124.834971,33.7161486 124.598818,33.8850676 C122.709587,35.2705405 120.482993,35.3039865 118.79618,32.7026351 C117.379257,30.5066892 115.658708,27.8039865 115.658708,27.8039865 L123.080686,18.5810135 C123.350576,18.2431757 123.114422,17.7702027 122.709587,17.7702027 L116.906949,17.7702027 C116.738268,17.7702027 116.603323,17.8377703 116.502114,17.9729054 L110.092224,26.790473 L110.092224,9.05398649 C110.092224,8.78371622 109.85607,8.54722973 109.58618,8.54722973 L104.694422,8.54722973 C104.424532,8.54722973 104.188378,8.78371622 104.188378,9.05398649 L104.188378,39.3245946 C104.188378,39.594527 104.424532,39.8313514 104.694422,39.8313514 L109.619916,39.8313514 C109.889807,39.8313514 110.12596,39.594527 110.12596,39.3245946 L110.12596,29.4931757 C110.12596,29.4931757 113.398378,34.6620946 114.64662,36.5877703 C116.333433,39.2229054 118.694971,40.3039865 121.258927,40.3039865 C123.687938,40.3039865 125.239807,39.6624324 127.095301,37.8377703 C127.263982,37.6688514 127.297719,37.4323649 127.19651,37.2296622 L125.307279,34.0539865 Z" id="Fill-27" fill="#0870E3" fill-rule="nonzero"></path>
      <path d="M160.426595,27.0946622 C158.874727,26.5203378 158.335284,26.3176351 157.154515,25.8781081 C155.973745,25.4392568 154.927584,24.7973649 154.927584,23.8514189 C154.927584,22.905473 155.805064,21.8581757 157.593086,21.8581757 C159.144617,21.8581757 160.089232,22.4662838 160.62935,23.5473649 C160.763957,23.8176351 161.067584,23.8852027 161.304075,23.7500676 L164.745174,21.7568243 C164.98099,21.6216892 165.048463,21.3176351 164.913855,21.0811486 C163.968902,19.4257432 162.113408,17.3311486 157.626485,17.3311486 C152.127474,17.3311486 149.293628,20.5068243 149.293628,24.0203378 C149.293628,27.5338514 152.16121,29.1892568 154.792976,30.2365541 C157.761767,31.4524324 157.963847,31.5203378 158.335284,31.655473 C159.245825,32.0270946 160.35946,32.6014189 160.35946,33.6483784 C160.35946,34.6960135 159.144617,35.6419595 157.289122,35.6419595 C155.56891,35.6419595 153.612207,34.9325 152.802199,32.9392568 C152.701328,32.6689865 152.363965,32.5338514 152.093738,32.7027703 L148.618902,34.6960135 C148.416485,34.8308108 148.315613,35.0676351 148.416485,35.3041216 C149.428573,37.9392568 152.431438,40.2703378 157.289122,40.2703378 C162.552317,40.2703378 166.060551,37.4662838 166.060551,33.5135811 C166.060551,29.5608784 163.36165,28.1757432 160.426595,27.0946622" id="Fill-29" fill="#0870E3" fill-rule="nonzero"></path>
      <path d="M180.196248,22.5675 C182.389105,22.5675 184.008445,23.2431757 185.526577,24.3242568 C185.762731,24.4931757 186.100094,24.4256081 186.234702,24.1891216 L188.258877,20.6756081 C188.39416,20.4391216 188.326687,20.1688514 188.090196,20.0337162 C185.998885,18.6147973 183.401193,17.2972297 179.892621,17.2972297 C176.417786,17.2972297 173.212841,18.2431757 170.918775,20.5742568 C168.624709,22.8715541 167.578885,25.6080405 167.578885,28.8516216 C167.578885,32.7702027 169.197888,35.2705405 170.952511,37.0269595 C172.706797,38.7837162 175.878006,40.2702027 179.926358,40.2702027 C183.569874,40.2702027 186.268775,38.7499324 188.12427,37.5337162 C188.326687,37.3985811 188.39416,37.094527 188.258877,36.8918243 L186.268775,33.4124324 C186.13383,33.1756081 185.796467,33.0745946 185.559976,33.2435135 C184.244599,34.1891216 182.355031,34.9999324 180.229984,34.9999324 C177.834709,34.9999324 173.482731,33.6485811 173.482731,28.7837162 C173.482731,23.9188514 177.800636,22.5675 180.196248,22.5675" id="Fill-31" fill="#0870E3" fill-rule="nonzero"></path>
      <path d="M278.503518,22.0270946 C281.303965,22.0270946 283.867584,23.7162838 284.272756,26.7568243 L272.498463,26.7568243 C273.274397,23.4797973 275.703408,22.0270946 278.503518,22.0270946 M279.448471,35.405473 C277.49143,35.405473 275.635935,34.9325 274.286485,33.8514189 C272.937034,32.7703378 272.296383,31.655473 272.296383,30.3379054 L289.77143,30.3379054 C290.04132,30.3379054 290.277474,30.1010811 290.277474,29.8311486 C290.176602,24.6284459 288.489789,22.1960135 286.870449,20.5406081 C285.183635,18.8514189 282.316053,17.2973649 278.537591,17.2973649 C274.758793,17.2973649 271.857811,18.6825 269.867034,20.6419595 C267.910668,22.6014189 266.425935,25.1014189 266.425935,28.8852027 C266.425935,32.6689865 267.944067,35.1686486 269.799562,37.0267568 C271.655056,38.8848649 274.69132,40.2703378 279.043635,40.2703378 C283.15946,40.2703378 286.634295,38.8176351 289.130441,35.9460135 C289.333196,35.709527 289.265386,35.3375676 288.995833,35.2027703 L285.520998,33.1757432 C285.352317,33.0743919 285.116163,33.0743919 284.947482,33.2433108 C283.226595,34.8649324 281.033738,35.405473 279.448471,35.405473" id="Fill-33" fill="#0870E3" fill-rule="nonzero"></path>
    </g>
  </g>
</svg>